<?xml version="1.0" encoding="utf-8"?>
<!-- Generator: Adobe Illustrator 21.1.0, SVG Export Plug-In . SVG Version: 6.00 Build 0)  -->
<svg version="1.1" id="Layer_1" xmlns="http://www.w3.org/2000/svg" xmlns:xlink="http://www.w3.org/1999/xlink" x="0px" y="0px"
	 viewBox="0 0 300 300" style="enable-background:new 0 0 300 300;" xml:space="preserve">
<style type="text/css">
	.st0{fill:#DC3B4B;}
</style>
<path class="st0" d="M55.7,29.4c6.6,4.5,13.4,9.3,20,14.2C73.9,111,59,178,66.7,246.1C51.8,174.5,62.7,100.5,55.7,29.4z"/>
<path class="st0" d="M237.6,19c-5.7,5.1-11.1,10.2-16.3,15.5c-47.9-16.8-101.1-22.4-154-15.1C122.6,4.9,181.8,4.7,237.6,19z"/>
<path class="st0" d="M219.7,36.3c4,7.2,9,13.3,14.3,18.7c-7,22.3-16.8,97.2-7.9,178C209.6,156.5,208.2,67.1,219.7,36.3z"/>
<path class="st0" d="M227.2,240.4c-7.5,5.9-14.7,12-21.6,18.3c-52.3-3.8-124.9,2.9-127,18.7c-1.9,13.1,59.6,9.5,131.1,8
	c-88.9,8-147.7,17.9-140-11.7c5.2-18.4,45.6-25.2,64.8-28.3C163,240.8,194.9,238.8,227.2,240.4z"/>
<path class="st0" d="M168.3,105.4c-8.3,3.5-14.5,9.3-18.2,15.7c-12.4-1-23,5.5-28.7,15.6c-3.3,5.8-2.7,7.1,0.8,9.1
	c10.6,5.9,32.8,2.1,45.2,15.6c17,17.8-8.6,35.7-26.8,30.9c-6.5-1.7-12.1-6.2-14.6-11.5c3.4,5.3,9.9,8.9,16.4,9.4
	c15.1,1.2,35-15.1,15.6-25.4c-13.7-7.2-41.3,1-50.6-15.2C97,132,128.3,90.1,168.3,105.4z"/>
<path class="st0" d="M158.7,123.4c3.2-5.5,8.5-9.7,14.7-12.2c5.2,8.3,5.4,25.4-3,31.8c-6.7,5-18,5-25.5,3.6
	c5.3-1.2,16.3-4.9,18.2-9.9C164.3,133.5,161.5,124.3,158.7,123.4z"/>
<path class="st0" d="M157,78.6c-6.6,0.4-13.1,1.8-18.9,4.4c-0.5-5.8-4-7.9-6.1-8.1c-2.1-0.1-5.8,0.4-9.9,2.4
	c-18.3,8.5-10.7,28.5,3.3,28.1c-15.3,2.8-28.9-19.6-7.4-37C134.6,55.1,150.5,63.1,157,78.6z"/>
</svg>
