<?xml version="1.0" encoding="utf-8"?>
<!-- Generator: Adobe Illustrator 21.1.0, SVG Export Plug-In . SVG Version: 6.00 Build 0)  -->
<svg version="1.1" id="Layer_1" xmlns="http://www.w3.org/2000/svg" xmlns:xlink="http://www.w3.org/1999/xlink" x="0px" y="0px"
	 viewBox="0 0 300 300" style="enable-background:new 0 0 300 300;" xml:space="preserve">
<style type="text/css">
	.st0{fill:#DC3B4B;}
</style>
<path class="st0" d="M101.3,57.9c-0.4-15.5,6.6-31-0.6-40.7c-1.9-2.5-2.1-2.1-12.6-12.6l3.3,8.3c6.1,15.6-5,33.3-3.1,52.2
	c1.8,19.6,15.1,37.9,36.1,45c8.6-3.7,15.4-9.4,19.5-15.9C120.9,97.5,101.6,79.2,101.3,57.9z"/>
<path class="st0" d="M122.3,27.5c-4-2.6-8.4-4.6-12.7-6.8c0.4,2.9,0.6,6.1,0.3,9.2c10.1,4.2,20.9,9.3,31.8,23.2
	c11.9,15,20,38.2,6.8,50.7C166.9,89.5,154.4,47.8,122.3,27.5z"/>
<path class="st0" d="M179.1,125.8c-6.4,0.3-12.9,0.3-19.6-0.6c-5.1-20.6,0.8-40.1,22.7-43.2c25.1-3.8,18.8,1.6,48.6-34.3
	c-15,25.5-18.3,33.4-28.3,38c-9.2,4.6-19.9,4.8-25.1,9.6c-3.4,3.1-5.8,9.7-3.2,18.8C175.3,117.8,177,121.8,179.1,125.8z"/>
<path class="st0" d="M166.2,138.8c5.8-2.6,11.7-5.2,16.9-8.6c4,4.8,7.6,7.4,13.7,5.6c24.4-7.1,13.8-46.5,25.7-55
	c-5,6.8-1.2,19.2-1.6,32.5c-0.8,27.9-19.9,39.5-34.4,37.2C177.9,149.1,171.8,143.8,166.2,138.8z"/>
<path class="st0" d="M123.1,126c-5.6-3.7-12.2-4-18.5-0.3c-1-2.4-4-4.7-6.2-6c-20.2-12-28.5-0.4-35.7,4.9
	c-12,8.9-26.1,12.4-39.1,10.7c33.7-2.5,34.4-27.9,55.9-32.4C94.9,99.8,121.3,107.6,123.1,126z"/>
<path class="st0" d="M105.5,130.6c5.1-1.8,10.6,7.5,13.1,12.3c-7.2,8.3-25.2,22.5-43.1,17.4c-30.3-9.6-46.1-24.1-58-27.8
	c11.4,1.8,32.9,14.4,61.5,17.7c4.6,0.5,9.3-2.1,13.2-4.9c10.5-7.6,13.3-15.3,13.3-15.3C105.5,130.2,105.5,130.4,105.5,130.6z"/>
<path class="st0" d="M152.7,144.2c0,0,1.4,11.5-1.3,17.1c-6.8-2.1-12.8-9.6-34-32.5C145.8,141.7,152.7,144.2,152.7,144.2z"/>
<path class="st0" d="M188,198.1c-3.6-0.4-7.7-0.6-12.1-0.8c-1.4-30.6-17.5-57.8-31.8-81.6c10.8,27,21.3,54.3,18.3,81.2
	c-12.6-0.2-25.8,0.1-35.4,0.4c-7.8,6.5-15.4,13.3-22.8,20.1c3.2-0.4,6.3-0.8,9.3-1.1c-7.3,1.9-12.7,4.3-14.1,6.6
	c-3.1,5.2,5.6,20,47.7,23.3c37.9,2.9,71-6.6,79.3-11.6C241.1,225.6,233.3,202.8,188,198.1z M106.4,230.3c-2.6-1.8-4.8-4.8-4.2-6.2
	c1.2-2.1,10.7-6.2,23.4-9.2c12.7-1.3,23.8-2.1,33.4-2.5c-0.8,2.5-1.8,5-2.9,7.5c5.1,4,9.8,8.5,14.2,13.5c2.6-7.3,4.3-14.4,5.1-21.3
	c43,0.5,46.2,11.1,46.4,12.1C211.6,234.7,134.7,249.7,106.4,230.3z M221.9,224.2C221.9,224.2,221.9,224.2,221.9,224.2
	C221.9,224.2,221.9,224.2,221.9,224.2z"/>
<path class="st0" d="M99.9,248.1c6.2,0.5,12.5,3,18.4,5.9c-0.6,6.7-2.6,16.1-2.6,19.9c-0.5,2.6-0.3,2.3-1,2.6c-0.3,0.2,0.1-0.1,0,0
	l0.1-0.1c-1.6,1.4,16.8,6.9,33.5,10c14.9,2.7,30.1,4.1,45.1,5.5c-20.6,1.3-45.2,3.1-68.5,0.1c-12.5-1.8-24-2.3-23.6-18.8v1
	C100.5,264.2,101.7,254.7,99.9,248.1z"/>
<path class="st0" d="M209.7,247.7c5-3.1,11-4.7,17.2-4.9c3.7,23.3-28,45.1-28.3,41.5c0,0,2.5-2,5.7-7.5
	C210.4,266.2,213.8,252.2,209.7,247.7z"/>
</svg>
