<?xml version="1.0" encoding="utf-8"?>
<!-- Generator: Adobe Illustrator 21.1.0, SVG Export Plug-In . SVG Version: 6.00 Build 0)  -->
<svg version="1.1" id="Layer_1" xmlns="http://www.w3.org/2000/svg" xmlns:xlink="http://www.w3.org/1999/xlink" x="0px" y="0px"
	 viewBox="0 0 300 300" style="enable-background:new 0 0 300 300;" xml:space="preserve">
<style type="text/css">
	.st0{fill:#DC3B4B;}
</style>
<path class="st0" d="M39.9,260.8c8.1-0.2,15.5-1.9,22.2-4.5c26.5,14.8,101.7,22.7,152.8,2.9c16.8-6.4,32.7-15.9,46.2-28.6
	c-34.6,37.5-84.2,49.7-134.6,50.3C90.1,281.2,61.5,277.8,39.9,260.8z"/>
<path class="st0" d="M83,46.3c5.5,6,11.3,11.3,17.3,16c3.4,38,24.6,81.2,61.3,75.4c37.1-7.5,56-54.3,59.8-91.5
	c-1.7,46.2-25.3,100.1-68.4,100.3C109.4,146.8,85.3,92.6,83,46.3z"/>
<path class="st0" d="M98.9,264.4c-5.5-5.8-10.7-12.4-15.4-19.7c13-96.5,112.3-137.9,136-33.6c2.2,10,3.7,20.3,4.9,30.6
	c-2-11.4-4.2-21.5-7.4-32.3C187,109.8,93.3,168.5,98.9,264.4z"/>
<path class="st0" d="M55,34.6c5.6-4.1,11.1-8.3,16.4-12.6c87.8,24.1,127.6,10.2,170.8-3.1C203.6,34.7,157.3,56.5,55,34.6z"/>
<path class="st0" d="M118.3,104.5c5-2.3,9.7-5.2,14-9.2c19.5,18.9,55.1,7.2,71.9,2.1c-12.5,6.7-25.5,13.7-40.2,16.6
	C148,117.2,130.7,114.8,118.3,104.5z"/>
<path class="st0" d="M128.9,263.5l-9.9-16.1l17.6-30.4c5.9-9.8,13.6-20.4,30.2-17.5c24.4,4.5,30.6,33,43.4,51.6
	c-14-16.3-25.3-46.4-48.1-43.7c-9.9,1.4-12.3,8.2-18.3,21.9L128.9,263.5z"/>
</svg>
