<?xml version="1.0" encoding="utf-8"?>
<!-- Generator: Adobe Illustrator 21.1.0, SVG Export Plug-In . SVG Version: 6.00 Build 0)  -->
<svg version="1.1" id="Layer_1" xmlns="http://www.w3.org/2000/svg" xmlns:xlink="http://www.w3.org/1999/xlink" x="0px" y="0px"
	 viewBox="0 0 300 300" style="enable-background:new 0 0 300 300;" xml:space="preserve">
<style type="text/css">
	.st0{fill:#DC3B4B;}
</style>
<path class="st0" d="M0,132.9c6.5-4.8,13-9.7,19.7-14.5c102.1,43.3,107.1,66.6,146.8,113C117.3,184.6,115.1,167.2,0,132.9z"/>
<path class="st0" d="M197.2,232.8c-7.1-1.6-14.1-5.2-20.5-10.3c6.1-47,51.6-63.8,122.9-101.5c-59.6,41.5-62.2,43.3-69.7,49.1
	C198.5,194.4,193.2,217.5,197.2,232.8z"/>
<path class="st0" d="M280.4,94.3c-2.7,6.6-7.2,12.9-12.6,18.6c-6.7-2.1-12.8-4.9-18.4-8.2c-19.1-11.1-89.8-64.3-96.4-79
	c8.4,12.2,71.7,48.1,94.9,59.6C258,90.3,269.2,94.8,280.4,94.3z"/>
<path class="st0" d="M127.5,14c6.4,2.6,12.1,7.7,16.3,14.2c-1.7,3-3.7,5.7-5.9,8c-13.5,15-74.3,51.1-104.2,63.1
	c28.8-17.3,81-61.1,89.7-74.1C125.9,21.4,127.2,17.7,127.5,14z"/>
<path class="st0" d="M93.5,198.7c6.4,1.7,12.8,3.8,19.2,6.1c-7.9,20.3-21.3,36.8-36.6,47.8C86.9,236.6,93,217.5,93.5,198.7z"/>
<path class="st0" d="M76.8,274l12.8-20.1c127.5,8.4,126.7,9.6,132.9,5.1c7.6-5.2,3.4-15.4,0.5-24.9c-2.1-7.1-4.3-14.1-6.8-21.2
	c2.7,5.8,13,28.3,14.3,34.3c1.4,7.1-1.2,12.8-5.7,16.1C217.6,268.9,218.1,267.5,76.8,274z"/>
<path class="st0" d="M273.7,219.5c-6-4.8-12-9.8-18.2-13.9c2.3-11.2,2.5-21-3.3-33.4C235,135,189.7,125,155,117.5
	c34.3,3,74.1,6.5,101.5,36.4C279.3,178.4,275.5,203.5,273.7,219.5z"/>
</svg>
