<?xml version="1.0" encoding="utf-8"?>
<!-- Generator: Adobe Illustrator 21.0.0, SVG Export Plug-In . SVG Version: 6.00 Build 0)  -->
<svg version="1.1" id="Capa_1" xmlns="http://www.w3.org/2000/svg" xmlns:xlink="http://www.w3.org/1999/xlink" x="0px" y="0px"
	 viewBox="0 0 100 100" style="enable-background:new 0 0 100 100;" xml:space="preserve">
<g>
	<path style="fill:#cb3456;" id="Skype" d="M95.8,57.2c0.4-2.4,0.6-4.8,0.6-7.2C96.4,24.4,75.6,3.6,50,3.6c-2.5,0-4.9,0.2-7.2,0.6C38.5,1.5,33.4,0,28,0
		C12.6,0,0,12.6,0,28c0,5.4,1.5,10.4,4.2,14.7c-0.4,2.4-0.6,4.8-0.6,7.2c0,25.6,20.8,46.4,46.4,46.4c2.5,0,4.9-0.2,7.2-0.6
		c4.3,2.6,9.3,4.2,14.7,4.2c15.5,0,28-12.6,28-28C100,66.6,98.5,61.5,95.8,57.2z M72,71.1c-2,2.8-4.8,5-8.6,6.6
		c-3.8,1.6-8.2,2.4-13.4,2.4c-6.2,0-11.3-1.1-15.3-3.3c-2.9-1.6-5.2-3.7-7-6.3C25.9,68,25,65.4,25,62.9c0-1.5,0.6-2.8,1.7-3.8
		c1.1-1.1,2.5-1.6,4.2-1.6c1.4,0,2.6,0.4,3.5,1.2c1,0.8,1.8,2,2.4,3.6c0.8,1.8,1.6,3.4,2.5,4.6c0.9,1.2,2.2,2.2,3.8,3
		c1.6,0.8,3.8,1.2,6.5,1.2c3.7,0,6.7-0.8,9-2.4c2.3-1.6,3.4-3.5,3.4-5.9c0-1.9-0.6-3.4-1.8-4.5c-1.2-1.2-2.8-2.1-4.8-2.7
		c-2-0.6-4.7-1.3-8-2c-4.5-1-8.2-2.1-11.3-3.4c-3-1.3-5.5-3.1-7.3-5.4c-1.8-2.3-2.7-5.1-2.7-8.5c0-3.2,0.9-6.1,2.8-8.6
		c1.9-2.5,4.6-4.4,8.2-5.8c3.6-1.3,7.8-2,12.6-2c3.8,0,7.2,0.4,10,1.3c2.8,0.9,5.1,2.1,7,3.5c1.9,1.5,3.2,3,4.1,4.7
		c0.9,1.6,1.3,3.2,1.3,4.8c0,1.4-0.6,2.8-1.7,3.9c-1.1,1.2-2.5,1.7-4.1,1.7c-1.5,0-2.6-0.3-3.4-1.1c-0.8-0.7-1.6-1.8-2.5-3.4
		c-1.1-2.2-2.5-3.8-4-5c-1.5-1.2-4-1.8-7.5-1.8c-3.2,0-5.8,0.7-7.8,2c-2,1.3-2.9,2.8-2.9,4.6c0,1.1,0.3,2.1,1,2.9
		c0.7,0.8,1.6,1.5,2.7,2.1c1.2,0.6,2.4,1.1,3.6,1.4c1.2,0.3,3.2,0.8,6,1.5c3.5,0.8,6.7,1.6,9.6,2.5c2.9,0.9,5.3,2,7.3,3.4
		c2,1.3,3.6,3,4.8,5.1c1.1,2,1.7,4.5,1.7,7.5C75,65.1,74,68.3,72,71.1z"/>
</g>
</svg>
