<?xml version="1.0" encoding="utf-8"?>
<!-- Generator: Adobe Illustrator 21.0.0, SVG Export Plug-In . SVG Version: 6.00 Build 0)  -->
<svg version="1.1" id="Capa_1" xmlns="http://www.w3.org/2000/svg" xmlns:xlink="http://www.w3.org/1999/xlink" x="0px" y="0px"
	 viewBox="0 0 100 100" style="enable-background:new 0 0 100 100;" xml:space="preserve">
<path style="fill:#cb3456;" d="M90.7,50.6c-1-4.5-4.7-7.8-9.1-8.3c-10.5-1.2-21.1-1.2-31.6-1.2c-10.5,0-21.1,0-31.6,1.2c-4.4,0.5-8.1,3.8-9.1,8.3
	C7.8,57,7.8,64,7.8,70.6c0,6.6,0,13.6,1.5,20c1,4.5,4.7,7.8,9.1,8.3C28.9,100,39.4,100,50,100c10.5,0,21.1,0,31.6-1.2
	c4.4-0.5,8.1-3.8,9.1-8.3c1.5-6.4,1.5-13.4,1.5-20C92.2,64,92.2,57,90.7,50.6z M31.9,55.6h-6.1V88h-5.7V55.6h-6v-5.3h17.8V55.6z
	 M47.3,88h-5.1V85c-2,2.3-4,3.5-5.8,3.5c-1.6,0-2.8-0.7-3.3-2.1c-0.3-0.9-0.4-2.2-0.4-4.2V59.9h5.1v20.7c0,1.2,0,1.8,0,2
	c0.1,0.8,0.5,1.2,1.2,1.2c1,0,2.1-0.8,3.2-2.4V59.9h5.1L47.3,88L47.3,88z M66.7,79.6c0,2.6-0.2,4.5-0.5,5.7c-0.7,2.1-2,3.2-4.1,3.2
	c-1.8,0-3.6-1-5.3-3.1V88h-5.1V50.3h5.1v12.3c1.6-2,3.4-3.1,5.3-3.1c2,0,3.4,1.1,4.1,3.2c0.3,1.1,0.5,3,0.5,5.7V79.6z M85.9,74.9
	H75.7v5c0,2.6,0.9,3.9,2.6,3.9c1.3,0,2-0.7,2.3-2c0-0.3,0.1-1.4,0.1-3.5h5.2V79c0,1.6-0.1,2.8-0.1,3.3c-0.2,1.1-0.6,2.2-1.2,3.1
	c-1.4,2-3.5,3.1-6.2,3.1c-2.7,0-4.7-1-6.2-2.9c-1.1-1.4-1.6-3.6-1.6-6.6v-9.9c0-3,0.5-5.2,1.6-6.6c1.5-1.9,3.5-2.9,6.1-2.9
	c2.6,0,4.6,1,6,2.9c1.1,1.4,1.6,3.6,1.6,6.6L85.9,74.9L85.9,74.9z"/>
<path style="fill:#cb3456;" d="M78.3,64.1c-1.7,0-2.6,1.3-2.6,3.9v2.6h5.1V68C80.8,65.4,80,64.1,78.3,64.1z"/>
<path style="fill:#cb3456;" d="M59.3,64.1c-0.8,0-1.7,0.4-2.5,1.2v17.2c0.9,0.9,1.7,1.3,2.5,1.3c1.5,0,2.2-1.3,2.2-3.8V68C61.6,65.4,60.8,64.1,59.3,64.1z"
	/>
<path style="fill:#cb3456;" d="M62.2,38.6c1.9,0,3.8-1.1,5.9-3.5v3.1h5.2V9.7h-5.2v21.7c-1.1,1.6-2.2,2.4-3.3,2.4c-0.7,0-1.1-0.4-1.2-1.2
	c-0.1-0.2-0.1-0.8-0.1-2V9.7h-5.1v22.5c0,2,0.2,3.4,0.5,4.2C59.4,37.9,60.5,38.6,62.2,38.6z"/>
<path style="fill:#cb3456;" d="M26.3,22.7v15.5H32V22.7L38.9,0h-5.8l-3.9,15L25.2,0h-6c1.2,3.5,2.5,7.1,3.7,10.6C24.6,16,25.8,20,26.3,22.7z"/>
<path style="fill:#cb3456;" d="M46.6,38.6c2.6,0,4.6-1,6-2.9c1.1-1.4,1.6-3.7,1.6-6.7V19c0-3-0.5-5.3-1.6-6.7c-1.4-1.9-3.4-2.9-6-2.9c-2.6,0-4.6,1-6,2.9
	c-1.1,1.4-1.6,3.7-1.6,6.7v10c0,3,0.5,5.3,1.6,6.7C42,37.6,44,38.6,46.6,38.6z M44.1,18c0-2.6,0.8-3.9,2.5-3.9
	c1.7,0,2.5,1.3,2.5,3.9v12c0,2.6-0.8,3.9-2.5,3.9c-1.7,0-2.5-1.3-2.5-3.9V18z"/>
</svg>
